<svg xmlns="http://www.w3.org/2000/svg" width="23.565" height="39.977" viewBox="0 0 23.565 39.977">
  <path id="Path_18" data-name="Path 18" d="M104.639,12.258a1.843,1.843,0,0,0-.586.1c0-.035.011-.067.011-.1a1.851,1.851,0,0,0-3.7,0h-3.8V6.128a1.851,1.851,0,1,0,0-3.7c-.035,0-.069.009-.1.011a1.813,1.813,0,0,0,.1-.586,1.85,1.85,0,1,0-3.7,0,1.843,1.843,0,0,0,.1.586c-.035,0-.067-.011-.1-.011a1.851,1.851,0,1,0,0,3.7v6.13h-3.8a1.851,1.851,0,1,0-3.7,0c0,.036.008.069.01.1a1.831,1.831,0,0,0-.585-.1,1.851,1.851,0,1,0,0,3.7,1.831,1.831,0,0,0,.585-.1c0,.035-.01.069-.01.1a1.851,1.851,0,1,0,3.7,0h3.8V33.85a1.851,1.851,0,1,0,0,3.7c.036,0,.069-.009.1-.01a1.831,1.831,0,0,0-.1.585,1.85,1.85,0,1,0,3.7,0,1.8,1.8,0,0,0-.1-.585c.035,0,.069.01.1.01a1.851,1.851,0,1,0,0-3.7V15.959h3.8a1.851,1.851,0,0,0,3.7,0c0-.035-.009-.069-.011-.1a1.847,1.847,0,1,0,.586-3.6" transform="translate(-82.926)" fill="#fff"/>
</svg>
