<svg xmlns="http://www.w3.org/2000/svg" width="40.155" height="33.087" viewBox="0 0 40.155 33.087">
  <path id="Path_15" data-name="Path 15" d="M2.027,161.453l-.494-1.246-.247-.624c-.04-.1-.085-.208-.121-.314l-.092-.323-.368-1.3C.648,157.434.572,157.22.53,157l-.118-.664L.182,155c-.058-.448-.072-.9-.11-1.348l-.047-.676L0,152.641l.009-.339.037-1.357a9.579,9.579,0,0,1,.117-1.353l.173-1.352.3-1.329a10.45,10.45,0,0,1,.35-1.319l.431-1.3.108-.325c.043-.106.091-.209.136-.314l.277-.626c.19-.414.358-.842.568-1.247l.673-1.2a22.69,22.69,0,0,1,7.627-7.825l.587-.37a4.816,4.816,0,0,1,.6-.346l1.243-.616.623-.306c.215-.09.436-.165.653-.249.44-.159.873-.337,1.318-.478a20.507,20.507,0,0,1,5.541-.842,20.416,20.416,0,0,1,5.562.827,19.566,19.566,0,0,1,5.084,2.436l1.15.828c.364.3.714.619,1.071.929a10.677,10.677,0,0,1,1.005,1,11.384,11.384,0,0,1,.937,1.066l.863,1.129.75,1.208a10.112,10.112,0,0,1,.668,1.252l.31.64.155.32.126.337a15.413,15.413,0,0,1,.06,11.3,15.663,15.663,0,0,1-7.6,8.392,12.97,12.97,0,0,1-5.66,1.42,12.579,12.579,0,0,1-5.71-1.26,13.144,13.144,0,0,1-2.494-1.559c-.368-.325-.748-.64-1.09-.993a12.081,12.081,0,0,1-.965-1.112l-.442-.59c-.144-.2-.26-.416-.39-.624s-.261-.417-.372-.635l-.316-.664a11.036,11.036,0,0,1-.543-1.39c-.069-.241-.121-.487-.181-.73-.028-.123-.061-.243-.084-.367l-.052-.372a9.9,9.9,0,0,1,0-2.995,10.341,10.341,0,0,1,4.742-7.286l.642-.38.674-.316a5.417,5.417,0,0,1,.7-.277l.36-.125.37-.092a8.3,8.3,0,0,1,8.269,2.579,8.435,8.435,0,0,1,1.55,2.565,6.871,6.871,0,0,1,.4,3.026,6.747,6.747,0,0,1-3.063,5.042,6.894,6.894,0,0,1-1.364.663,5.335,5.335,0,0,1-1.517.3,5.5,5.5,0,0,1-2.961-.69,5.835,5.835,0,0,1-1.213-.926,5.763,5.763,0,0,1-.9-1.226,4.985,4.985,0,0,1-.514-1.447,4.3,4.3,0,0,1,.016-1.545,4.163,4.163,0,0,1,4.408-3.455,3.488,3.488,0,0,1,2.5,1.6,3.042,3.042,0,0,1,.477,1.441,2.793,2.793,0,0,1-.336,1.477,2.727,2.727,0,0,1-1.047,1.066,2.3,2.3,0,0,1-1.46.308,2.117,2.117,0,0,1-1.858-2.028,1.724,1.724,0,0,1,.625-1.287,1.437,1.437,0,0,1,1.36-.295,1.3,1.3,0,0,1,.886,1.011,1.024,1.024,0,0,1-.642,1.094.978.978,0,0,0,.552-1.08,1.161,1.161,0,0,0-.847-.851,1.211,1.211,0,0,0-1.129.326,1.4,1.4,0,0,0-.441,1.078,1.583,1.583,0,0,0,.5,1.044,1.728,1.728,0,0,0,1.05.471,1.988,1.988,0,0,0,1.856-1.165,2.078,2.078,0,0,0,.189-1.113,2.325,2.325,0,0,0-.413-1.054,2.618,2.618,0,0,0-1.922-1.111,2.843,2.843,0,0,0-2.084.753,3.261,3.261,0,0,0-1.022,3.088,3.767,3.767,0,0,0,.422,1.049,4.39,4.39,0,0,0,.713.9,4.47,4.47,0,0,0,.935.659,4.055,4.055,0,0,0,2.2.43,4.464,4.464,0,0,0,2.11-.8,5.166,5.166,0,0,0,2.2-3.867,5.1,5.1,0,0,0-.359-2.226,6.579,6.579,0,0,0-1.256-1.958,6.424,6.424,0,0,0-6.36-1.834l-.279.072-.27.1a3.871,3.871,0,0,0-.539.224l-.534.259-.5.313a8.177,8.177,0,0,0-3.655,5.81,7.652,7.652,0,0,0,.04,2.338l.043.289c.02.1.048.19.072.285.051.189.092.38.148.567a9.248,9.248,0,0,0,.442,1.1l.26.544c.092.179.207.344.309.517s.2.349.321.509l.363.478a9.763,9.763,0,0,0,.793.9c.279.287.593.54.892.806a10.845,10.845,0,0,0,2.043,1.26,10.229,10.229,0,0,0,4.655,1,10.612,10.612,0,0,0,4.625-1.193,13.3,13.3,0,0,0,6.494-16.7l-.1-.291-.133-.285-.267-.569a8.564,8.564,0,0,0-.572-1.117l-.644-1.078L34.463,138a9.29,9.29,0,0,0-.814-.957,8.837,8.837,0,0,0-.876-.9c-.313-.279-.619-.568-.937-.841l-1.012-.751a17.959,17.959,0,0,0-4.5-2.253,18.47,18.47,0,0,0-4.974-.873,18.741,18.741,0,0,0-5.029.631c-.408.118-.805.271-1.21.4-.2.07-.4.133-.6.21l-.586.27-1.174.535a4.316,4.316,0,0,0-.57.3l-.558.325a21.429,21.429,0,0,0-7.438,7.1l-.692,1.108c-.219.376-.395.776-.595,1.163l-.292.586c-.048.1-.1.195-.145.294l-.117.306-.47,1.224a9.841,9.841,0,0,0-.395,1.251l-.35,1.267L.9,149.694A9.466,9.466,0,0,0,.708,151a23.367,23.367,0,0,0,1.318,10.454" transform="translate(0 -129.553)" fill="#fff"/>
</svg>
